<svg id="svg" version="1.1" xmlns="http://www.w3.org/2000/svg" xmlns:xlink="http://www.w3.org/1999/xlink" width="400" height="400" viewBox="0, 0, 400,400"><g id="svgg"><path id="path0" d="M163.000 57.816 C 144.080 60.061,130.365 72.547,125.893 91.600 C 125.631 92.717,125.415 102.414,125.323 117.143 L 125.176 140.885 132.896 140.743 L 140.617 140.600 143.294 139.282 C 148.707 136.617,150.003 133.899,150.397 124.390 C 150.855 113.327,154.566 108.198,162.728 107.344 C 165.048 107.102,165.688 107.227,174.400 109.621 C 177.233 110.399,179.117 110.803,183.800 111.636 C 196.527 113.900,214.291 113.016,225.800 109.546 C 236.693 106.262,240.239 106.519,245.079 110.941 C 248.647 114.201,249.218 115.901,249.620 124.453 C 250.238 137.604,253.347 140.497,267.110 140.731 L 274.819 140.861 274.710 118.131 L 274.600 95.400 273.307 92.670 C 270.337 86.400,263.700 82.051,257.000 81.985 C 252.771 81.944,250.016 79.687,249.986 76.241 C 249.912 67.700,243.811 59.974,235.413 57.787 C 232.314 56.979,169.837 57.005,163.000 57.816 M153.550 253.524 C 147.472 256.536,139.372 260.527,135.550 262.393 C 131.727 264.260,127.700 266.365,126.600 267.073 C 125.500 267.780,122.440 269.018,119.800 269.823 C 117.160 270.629,114.687 271.448,114.305 271.644 C 113.923 271.840,113.336 272.000,113.000 272.000 C 112.664 272.000,112.077 272.162,111.695 272.359 C 111.313 272.556,109.650 273.115,108.000 273.600 C 106.350 274.085,104.687 274.644,104.305 274.841 C 103.923 275.038,103.158 275.200,102.605 275.200 C 102.052 275.200,101.600 275.380,101.600 275.600 C 101.600 275.820,101.161 276.000,100.624 276.000 C 100.087 276.000,99.536 276.180,99.400 276.400 C 99.264 276.620,98.634 276.800,98.000 276.800 C 97.366 276.800,96.736 276.980,96.600 277.200 C 96.464 277.420,95.924 277.600,95.400 277.600 C 94.876 277.600,94.336 277.780,94.200 278.000 C 94.064 278.220,93.524 278.400,93.000 278.400 C 92.476 278.400,91.936 278.580,91.800 278.800 C 91.664 279.020,91.034 279.200,90.400 279.200 C 89.766 279.200,89.136 279.380,89.000 279.600 C 88.864 279.820,88.349 280.000,87.856 280.000 C 87.363 280.000,86.789 280.149,86.580 280.330 C 86.371 280.512,85.390 280.909,84.400 281.213 C 76.490 283.637,67.989 290.250,62.818 298.000 C 60.461 301.534,58.000 306.309,58.000 307.351 C 58.000 307.682,57.820 308.064,57.600 308.200 C 57.380 308.336,57.200 308.876,57.200 309.400 C 57.200 309.924,57.039 310.452,56.842 310.574 C 56.645 310.695,56.390 311.471,56.275 312.297 C 56.160 313.124,55.883 315.167,55.659 316.838 C 55.436 318.510,55.215 323.867,55.170 328.744 L 55.087 337.612 57.346 339.766 C 58.831 341.181,59.525 342.129,59.371 342.532 C 59.140 343.135,67.215 351.600,68.021 351.600 C 68.218 351.600,69.189 352.410,70.179 353.400 C 71.169 354.390,72.126 355.200,72.306 355.200 C 72.486 355.200,73.526 356.009,74.617 356.998 C 75.708 357.987,76.745 358.797,76.922 358.798 C 77.099 358.799,77.819 359.339,78.522 359.998 C 79.225 360.657,79.953 361.197,80.140 361.198 C 80.326 361.199,80.983 361.740,81.600 362.400 C 82.217 363.060,82.969 363.600,83.272 363.600 C 83.575 363.600,84.083 363.960,84.400 364.400 C 84.717 364.840,85.257 365.200,85.600 365.200 C 85.943 365.200,86.483 365.560,86.800 366.000 C 87.117 366.440,87.657 366.800,88.000 366.800 C 88.343 366.800,88.883 367.160,89.200 367.600 C 89.517 368.040,90.057 368.400,90.400 368.400 C 90.743 368.400,91.283 368.760,91.600 369.200 C 91.917 369.640,92.497 370.000,92.888 370.000 C 93.280 370.000,93.600 370.180,93.600 370.400 C 93.600 370.620,93.836 370.800,94.125 370.800 C 94.413 370.800,95.036 371.160,95.508 371.600 C 95.980 372.040,96.539 372.400,96.750 372.400 C 96.961 372.400,97.193 372.557,97.267 372.749 C 97.447 373.221,101.419 375.200,102.187 375.200 C 102.524 375.200,102.800 375.380,102.800 375.600 C 102.800 375.820,103.120 376.000,103.512 376.000 C 103.903 376.000,104.483 376.360,104.800 376.800 C 105.117 377.240,105.697 377.600,106.088 377.600 C 106.480 377.600,106.800 377.780,106.800 378.000 C 106.800 378.220,107.160 378.400,107.600 378.400 C 108.040 378.400,108.401 378.535,108.403 378.700 C 108.407 379.065,110.349 380.000,111.103 380.000 C 111.402 380.000,111.536 380.180,111.400 380.400 C 111.264 380.620,111.416 380.800,111.739 380.800 C 112.244 380.800,113.501 381.342,116.495 382.850 C 116.877 383.043,117.462 383.200,117.795 383.200 C 118.128 383.200,118.400 383.380,118.400 383.600 C 118.400 383.820,118.760 384.000,119.200 384.000 C 119.640 384.000,120.000 384.180,120.000 384.400 C 120.000 384.620,120.349 384.800,120.776 384.800 C 121.203 384.800,121.664 384.980,121.800 385.200 C 121.936 385.420,122.487 385.600,123.024 385.600 C 123.561 385.600,124.000 385.780,124.000 386.000 C 124.000 386.220,124.360 386.400,124.800 386.400 C 125.240 386.400,125.600 386.580,125.600 386.800 C 125.600 387.020,125.962 387.200,126.405 387.200 C 126.848 387.200,127.523 387.359,127.905 387.553 C 128.840 388.029,130.307 388.618,132.000 389.200 C 132.770 389.464,133.760 389.823,134.200 389.997 C 136.018 390.715,139.355 391.600,140.246 391.600 C 140.771 391.600,141.200 391.780,141.200 392.000 C 141.200 392.220,141.830 392.400,142.600 392.400 C 143.370 392.400,144.000 392.580,144.000 392.800 C 144.000 393.020,144.630 393.200,145.400 393.200 C 146.170 393.200,146.800 393.380,146.800 393.600 C 146.800 393.820,147.419 394.000,148.176 394.000 C 148.933 394.000,149.664 394.180,149.800 394.400 C 149.936 394.620,150.667 394.800,151.424 394.800 C 152.181 394.800,152.800 394.980,152.800 395.200 C 152.800 395.420,153.509 395.600,154.376 395.600 C 155.243 395.600,156.064 395.780,156.200 396.000 C 156.336 396.220,157.236 396.400,158.200 396.400 C 159.164 396.400,160.064 396.580,160.200 396.800 C 160.336 397.020,161.337 397.200,162.424 397.200 C 163.511 397.200,164.400 397.380,164.400 397.600 C 164.400 397.822,165.467 398.000,166.800 398.000 C 168.133 398.000,169.200 398.178,169.200 398.400 C 169.200 398.628,170.389 398.800,171.967 398.800 C 173.488 398.800,174.794 398.983,174.869 399.207 C 175.007 399.620,196.800 400.330,196.800 399.921 C 196.800 399.807,195.075 396.133,192.966 391.757 C 188.857 383.231,187.778 380.939,186.393 377.800 C 185.908 376.700,185.081 374.850,184.555 373.688 C 184.030 372.527,183.600 371.497,183.600 371.400 C 183.600 371.303,183.164 370.270,182.631 369.105 C 182.098 367.940,181.274 366.002,180.800 364.800 C 180.326 363.598,179.534 361.711,179.040 360.607 C 178.546 359.503,177.912 357.970,177.630 357.200 C 177.349 356.430,176.957 355.395,176.760 354.900 C 176.562 354.405,176.220 353.550,176.000 353.000 C 175.780 352.450,175.429 351.595,175.220 351.100 C 175.011 350.605,174.574 349.390,174.249 348.400 C 173.924 347.410,173.029 344.800,172.262 342.600 C 170.406 337.285,167.758 328.934,166.746 325.208 C 166.296 323.553,165.753 321.570,165.538 320.800 C 163.786 314.524,161.925 305.696,160.773 298.200 C 160.537 296.660,160.163 294.320,159.943 293.000 C 159.300 289.137,159.039 272.265,159.566 268.600 C 160.391 262.854,161.338 258.453,162.039 257.105 C 162.238 256.723,162.400 256.136,162.400 255.801 C 162.400 255.192,163.397 252.763,164.837 249.862 C 165.256 249.016,165.600 248.251,165.600 248.162 C 165.600 247.656,163.553 248.567,153.550 253.524 M234.487 248.300 C 235.479 250.238,236.845 253.468,237.491 255.400 C 238.832 259.413,239.013 260.194,240.369 267.824 C 240.893 270.774,240.943 287.611,240.435 290.280 C 240.234 291.336,239.859 293.820,239.602 295.800 C 239.345 297.780,238.964 300.300,238.755 301.400 C 237.308 309.036,236.809 311.414,235.546 316.700 C 234.219 322.257,229.801 337.349,228.784 339.800 C 228.602 340.240,228.069 341.770,227.600 343.200 C 227.131 344.630,226.597 346.160,226.414 346.600 C 226.231 347.040,225.864 348.030,225.600 348.800 C 225.149 350.115,224.937 350.669,224.037 352.900 C 223.837 353.395,223.192 355.060,222.603 356.600 C 222.014 358.140,221.278 359.985,220.966 360.700 C 220.655 361.415,220.144 362.585,219.831 363.300 C 219.518 364.015,218.874 365.590,218.400 366.800 C 217.492 369.116,216.888 370.521,215.392 373.800 C 214.889 374.900,213.900 377.150,213.193 378.800 C 212.485 380.450,209.947 385.833,207.553 390.761 C 205.159 395.690,203.200 399.814,203.200 399.926 C 203.200 400.325,224.998 399.603,225.133 399.199 C 225.207 398.980,226.512 398.800,228.033 398.800 C 229.611 398.800,230.800 398.628,230.800 398.400 C 230.800 398.178,231.867 398.000,233.200 398.000 C 234.533 398.000,235.600 397.822,235.600 397.600 C 235.600 397.380,236.590 397.200,237.800 397.200 C 239.010 397.200,240.000 397.020,240.000 396.800 C 240.000 396.580,240.720 396.400,241.600 396.400 C 242.480 396.400,243.200 396.220,243.200 396.000 C 243.200 395.780,244.100 395.600,245.200 395.600 C 246.300 395.600,247.200 395.420,247.200 395.200 C 247.200 394.980,247.920 394.800,248.800 394.800 C 249.680 394.800,250.400 394.620,250.400 394.400 C 250.400 394.180,251.030 394.000,251.800 394.000 C 252.570 394.000,253.200 393.820,253.200 393.600 C 253.200 393.380,253.830 393.200,254.600 393.200 C 255.370 393.200,256.000 393.020,256.000 392.800 C 256.000 392.580,256.630 392.400,257.400 392.400 C 258.170 392.400,258.800 392.220,258.800 392.000 C 258.800 391.780,259.229 391.600,259.754 391.600 C 260.706 391.600,264.462 390.591,265.600 390.030 C 265.930 389.868,267.055 389.485,268.100 389.180 C 269.145 388.875,270.000 388.485,270.000 388.313 C 270.000 388.141,270.439 388.000,270.976 388.000 C 271.513 388.000,272.064 387.820,272.200 387.600 C 272.336 387.380,272.887 387.200,273.424 387.200 C 273.961 387.200,274.400 387.020,274.400 386.800 C 274.400 386.580,274.760 386.400,275.200 386.400 C 275.640 386.400,276.000 386.220,276.000 386.000 C 276.000 385.780,276.439 385.600,276.976 385.600 C 277.513 385.600,278.064 385.420,278.200 385.200 C 278.336 384.980,278.797 384.800,279.224 384.800 C 279.651 384.800,280.000 384.620,280.000 384.400 C 280.000 384.180,280.360 384.000,280.800 384.000 C 281.240 384.000,281.600 383.820,281.600 383.600 C 281.600 383.380,281.872 383.200,282.205 383.200 C 282.538 383.200,283.123 383.038,283.505 382.841 C 283.887 382.643,285.820 381.700,287.800 380.745 C 289.780 379.789,291.460 378.871,291.533 378.704 C 291.607 378.537,292.012 378.400,292.433 378.400 C 292.855 378.400,293.200 378.220,293.200 378.000 C 293.200 377.780,293.478 377.600,293.817 377.600 C 294.156 377.600,294.820 377.240,295.292 376.800 C 295.764 376.360,296.387 376.000,296.675 376.000 C 296.964 376.000,297.200 375.843,297.200 375.650 C 297.200 375.457,297.755 375.189,298.434 375.053 C 299.112 374.918,300.175 374.445,300.795 374.003 C 301.416 373.561,302.121 373.200,302.362 373.200 C 302.603 373.200,302.800 373.020,302.800 372.800 C 302.800 372.580,302.993 372.400,303.228 372.400 C 303.463 372.400,304.441 371.860,305.400 371.200 C 306.359 370.540,307.297 370.000,307.484 370.000 C 307.671 370.000,308.083 369.640,308.400 369.200 C 308.717 368.760,309.257 368.400,309.600 368.400 C 309.943 368.400,310.483 368.040,310.800 367.600 C 311.117 367.160,311.657 366.800,312.000 366.800 C 312.343 366.800,312.883 366.440,313.200 366.000 C 313.517 365.560,314.057 365.200,314.400 365.200 C 314.743 365.200,315.283 364.840,315.600 364.400 C 315.917 363.960,316.380 363.600,316.629 363.600 C 316.878 363.600,317.646 363.060,318.337 362.400 C 319.028 361.740,319.792 361.200,320.036 361.200 C 320.280 361.200,320.983 360.660,321.600 360.000 C 322.217 359.340,322.874 358.800,323.061 358.800 C 323.247 358.800,324.188 358.080,325.151 357.200 C 326.113 356.320,327.042 355.600,327.215 355.600 C 327.387 355.600,328.558 354.610,329.818 353.400 C 331.077 352.190,332.265 351.200,332.458 351.200 C 333.093 351.200,341.238 342.786,340.991 342.385 C 340.613 341.773,341.857 340.775,342.670 341.039 C 343.199 341.210,343.255 341.171,342.874 340.898 C 342.468 340.606,342.671 340.190,343.774 339.053 L 345.200 337.585 345.200 329.000 C 345.200 316.295,343.979 309.946,340.084 302.402 C 337.475 297.348,330.431 288.400,329.061 288.400 C 328.886 288.400,327.631 287.607,326.272 286.637 C 324.912 285.667,322.180 284.119,320.200 283.197 C 318.220 282.274,316.287 281.358,315.905 281.160 C 315.523 280.962,314.859 280.800,314.429 280.800 C 313.999 280.800,313.536 280.620,313.400 280.400 C 313.264 280.180,312.724 280.000,312.200 280.000 C 311.676 280.000,311.136 279.820,311.000 279.600 C 310.864 279.380,310.324 279.200,309.800 279.200 C 309.276 279.200,308.736 279.020,308.600 278.800 C 308.464 278.580,307.924 278.400,307.400 278.400 C 306.876 278.400,306.336 278.220,306.200 278.000 C 306.064 277.780,305.434 277.600,304.800 277.600 C 304.166 277.600,303.536 277.420,303.400 277.200 C 303.264 276.980,302.724 276.800,302.200 276.800 C 301.676 276.800,301.136 276.620,301.000 276.400 C 300.864 276.180,300.401 276.000,299.971 276.000 C 299.541 276.000,298.877 275.838,298.495 275.639 C 298.113 275.440,296.990 275.063,296.000 274.800 C 295.010 274.537,293.887 274.160,293.505 273.961 C 293.123 273.762,292.536 273.600,292.200 273.600 C 291.864 273.600,291.277 273.438,290.895 273.241 C 290.513 273.044,288.940 272.511,287.400 272.057 C 279.454 269.716,275.205 268.191,273.400 267.034 C 272.300 266.328,268.250 264.206,264.400 262.317 C 260.550 260.428,252.410 256.434,246.310 253.442 C 235.918 248.342,234.105 247.554,234.487 248.300 " stroke="none" fill="#3e6c8f" fill-rule="evenodd"></path><path id="path1" d="M178.500 0.274 C 176.465 0.360,174.800 0.603,174.800 0.815 C 174.800 1.027,173.551 1.200,172.024 1.200 C 170.497 1.200,169.136 1.380,169.000 1.600 C 168.864 1.820,167.784 2.000,166.600 2.000 C 165.416 2.000,164.336 2.180,164.200 2.400 C 164.064 2.620,163.164 2.800,162.200 2.800 C 161.236 2.800,160.336 2.980,160.200 3.200 C 160.064 3.420,159.164 3.600,158.200 3.600 C 157.236 3.600,156.336 3.780,156.200 4.000 C 156.064 4.220,155.243 4.400,154.376 4.400 C 153.509 4.400,152.800 4.580,152.800 4.800 C 152.800 5.020,152.069 5.200,151.176 5.200 C 150.196 5.200,149.651 5.358,149.800 5.600 C 149.947 5.838,149.479 6.000,148.647 6.000 C 147.877 6.000,147.136 6.180,147.000 6.400 C 146.864 6.620,146.234 6.800,145.600 6.800 C 144.966 6.800,144.336 6.980,144.200 7.200 C 144.064 7.420,143.434 7.600,142.800 7.600 C 142.166 7.600,141.551 7.756,141.432 7.947 C 141.314 8.139,140.449 8.436,139.509 8.608 C 138.569 8.781,137.710 8.954,137.600 8.993 C 137.490 9.033,136.860 9.202,136.200 9.370 C 135.540 9.538,134.429 9.930,133.732 10.241 C 133.034 10.552,131.909 10.918,131.232 11.054 C 130.554 11.189,130.000 11.457,130.000 11.650 C 130.000 11.843,129.550 12.000,129.000 12.000 C 128.450 12.000,128.000 12.180,128.000 12.400 C 128.000 12.620,127.460 12.800,126.800 12.800 C 126.140 12.800,125.600 12.980,125.600 13.200 C 125.600 13.420,125.240 13.600,124.800 13.600 C 124.360 13.600,124.000 13.736,124.000 13.902 C 124.000 14.200,121.475 15.200,120.500 15.288 C 120.225 15.313,120.000 15.483,120.000 15.667 C 120.000 15.850,119.640 16.000,119.200 16.000 C 118.760 16.000,118.400 16.180,118.400 16.400 C 118.400 16.620,118.147 16.800,117.838 16.800 C 117.529 16.800,116.584 17.146,115.738 17.570 C 114.892 17.993,113.615 18.577,112.900 18.867 C 112.185 19.158,111.600 19.531,111.600 19.698 C 111.600 19.864,111.240 20.000,110.800 20.000 C 110.360 20.000,110.000 20.180,110.000 20.400 C 110.000 20.620,109.640 20.800,109.200 20.800 C 108.760 20.800,108.400 20.980,108.400 21.200 C 108.400 21.420,108.040 21.600,107.600 21.600 C 107.160 21.600,106.800 21.780,106.800 22.000 C 106.800 22.220,106.564 22.400,106.275 22.400 C 105.987 22.400,105.364 22.760,104.892 23.200 C 104.420 23.640,103.756 24.000,103.417 24.000 C 103.078 24.000,102.800 24.180,102.800 24.400 C 102.800 24.620,102.520 24.800,102.177 24.800 C 101.456 24.800,98.147 26.571,97.058 27.540 C 96.650 27.903,96.200 28.154,96.058 28.097 C 95.916 28.040,95.483 28.265,95.095 28.597 C 94.708 28.929,94.213 29.200,93.995 29.200 C 93.778 29.200,93.600 29.380,93.600 29.600 C 93.600 29.820,93.364 30.000,93.075 30.000 C 92.787 30.000,92.164 30.360,91.692 30.800 C 91.220 31.240,90.622 31.600,90.364 31.600 C 90.105 31.600,89.603 31.916,89.247 32.303 C 88.891 32.689,88.105 33.260,87.500 33.570 C 86.895 33.881,86.400 34.285,86.400 34.468 C 86.400 34.650,86.080 34.800,85.688 34.800 C 85.297 34.800,84.717 35.160,84.400 35.600 C 84.083 36.040,83.628 36.400,83.390 36.400 C 83.151 36.400,82.259 37.039,81.406 37.820 C 80.553 38.601,79.348 39.540,78.728 39.906 C 78.108 40.273,77.600 40.714,77.600 40.886 C 77.600 41.059,77.412 41.200,77.183 41.200 C 76.748 41.200,76.648 41.272,74.454 43.150 C 72.148 45.123,72.000 45.237,72.000 45.031 C 72.000 44.921,71.325 45.505,70.500 46.330 C 69.675 47.154,68.425 48.232,67.722 48.726 C 67.019 49.220,64.679 51.415,62.522 53.604 C 60.365 55.794,58.368 57.813,58.085 58.093 C 50.670 65.396,48.800 67.307,48.800 67.577 C 48.800 67.757,47.878 68.870,46.751 70.052 C 45.624 71.233,44.743 72.262,44.794 72.338 C 44.875 72.458,43.149 74.610,41.700 76.196 C 41.425 76.497,41.200 76.902,41.200 77.097 C 41.200 77.291,40.660 77.968,40.000 78.600 C 39.340 79.232,38.800 79.898,38.800 80.078 C 38.800 80.259,38.260 80.972,37.600 81.663 C 36.940 82.354,36.400 83.122,36.400 83.371 C 36.400 83.620,36.040 84.083,35.600 84.400 C 35.160 84.717,34.800 85.297,34.800 85.688 C 34.800 86.080,34.650 86.400,34.468 86.400 C 34.285 86.400,33.881 86.895,33.570 87.500 C 33.260 88.105,32.689 88.891,32.303 89.247 C 31.916 89.603,31.600 90.148,31.600 90.459 C 31.600 90.769,31.240 91.283,30.800 91.600 C 30.360 91.917,30.000 92.329,30.000 92.516 C 30.000 92.703,29.460 93.641,28.800 94.600 C 28.140 95.559,27.600 96.522,27.600 96.739 C 27.600 96.956,27.463 97.193,27.296 97.267 C 26.875 97.452,24.800 101.555,24.800 102.204 C 24.800 102.495,24.665 102.793,24.500 102.867 C 24.124 103.034,22.825 105.164,22.529 106.100 C 22.407 106.485,22.148 106.800,21.953 106.800 C 21.759 106.800,21.600 107.160,21.600 107.600 C 21.600 108.040,21.420 108.400,21.200 108.400 C 20.980 108.400,20.800 108.760,20.800 109.200 C 20.800 109.640,20.665 110.001,20.500 110.003 C 20.141 110.007,19.200 111.944,19.200 112.680 C 19.200 112.966,19.065 113.201,18.900 113.203 C 18.494 113.207,17.600 115.186,17.600 116.080 C 17.600 116.476,17.420 116.800,17.200 116.800 C 16.980 116.800,16.800 117.160,16.800 117.600 C 16.800 118.040,16.620 118.400,16.400 118.400 C 16.180 118.400,16.000 118.760,16.000 119.200 C 16.000 119.640,15.820 120.000,15.600 120.000 C 15.380 120.000,15.200 120.349,15.200 120.776 C 15.200 121.203,15.020 121.664,14.800 121.800 C 14.580 121.936,14.400 122.487,14.400 123.024 C 14.400 123.561,14.220 124.000,14.000 124.000 C 13.780 124.000,13.600 124.360,13.600 124.800 C 13.600 125.240,13.420 125.600,13.200 125.600 C 12.980 125.600,12.800 126.039,12.800 126.576 C 12.800 127.113,12.620 127.664,12.400 127.800 C 12.180 127.936,12.000 128.487,12.000 129.024 C 12.000 129.561,11.820 130.000,11.600 130.000 C 11.380 130.000,11.200 130.349,11.200 130.776 C 11.200 131.203,11.020 131.664,10.800 131.800 C 10.580 131.936,10.400 132.399,10.400 132.829 C 10.400 133.259,10.237 133.923,10.037 134.305 C 9.440 135.447,8.400 139.222,8.400 140.246 C 8.400 140.771,8.220 141.200,8.000 141.200 C 7.780 141.200,7.600 141.819,7.600 142.576 C 7.600 143.333,7.420 144.064,7.200 144.200 C 6.980 144.336,6.800 144.987,6.800 145.647 C 6.800 146.345,6.633 146.744,6.400 146.600 C 6.158 146.451,6.000 146.996,6.000 147.976 C 6.000 148.869,5.820 149.600,5.600 149.600 C 5.380 149.600,5.200 150.309,5.200 151.176 C 5.200 152.043,5.020 152.864,4.800 153.000 C 4.580 153.136,4.400 153.856,4.400 154.600 C 4.400 155.344,4.220 156.064,4.000 156.200 C 3.780 156.336,3.600 157.247,3.600 158.224 C 3.600 159.201,3.420 160.000,3.200 160.000 C 2.980 160.000,2.800 160.889,2.800 161.976 C 2.800 163.063,2.620 164.064,2.400 164.200 C 2.180 164.336,2.000 165.416,2.000 166.600 C 2.000 167.784,1.820 168.864,1.600 169.000 C 1.380 169.136,1.200 170.371,1.200 171.744 C 1.200 173.207,0.993 174.447,0.700 174.740 C 0.311 175.129,0.200 180.743,0.200 200.087 C 0.200 219.608,0.307 224.969,0.700 225.100 C 1.034 225.211,1.200 226.160,1.200 227.953 C 1.200 229.431,1.363 230.811,1.563 231.020 C 1.763 231.229,2.028 232.300,2.152 233.400 C 2.702 238.264,2.900 239.423,3.239 239.780 C 3.437 239.989,3.600 240.833,3.600 241.656 C 3.600 242.479,3.780 243.264,4.000 243.400 C 4.220 243.536,4.400 244.447,4.400 245.424 C 4.400 246.401,4.580 247.200,4.800 247.200 C 5.020 247.200,5.200 247.920,5.200 248.800 C 5.200 249.680,5.380 250.400,5.600 250.400 C 5.820 250.400,6.000 250.929,6.000 251.576 C 6.000 252.223,6.180 252.864,6.400 253.000 C 6.620 253.136,6.800 253.867,6.800 254.624 C 6.800 255.381,6.980 256.000,7.200 256.000 C 7.420 256.000,7.600 256.529,7.600 257.176 C 7.600 257.823,7.780 258.464,8.000 258.600 C 8.220 258.736,8.400 259.266,8.400 259.778 C 8.400 260.649,9.292 264.000,10.003 265.800 C 10.177 266.240,10.536 267.230,10.800 268.000 C 11.382 269.693,11.971 271.160,12.447 272.095 C 12.641 272.477,12.800 273.152,12.800 273.595 C 12.800 274.038,12.980 274.400,13.200 274.400 C 13.420 274.400,13.600 274.760,13.600 275.200 C 13.600 275.640,13.780 276.000,14.000 276.000 C 14.220 276.000,14.400 276.355,14.400 276.788 C 14.400 277.221,14.760 278.217,15.200 279.000 C 15.640 279.783,16.000 280.689,16.000 281.012 C 16.000 281.335,16.180 281.600,16.400 281.600 C 16.620 281.600,16.800 281.872,16.800 282.205 C 16.800 282.538,16.961 283.123,17.158 283.505 C 17.355 283.887,18.119 285.460,18.856 287.000 C 19.593 288.540,20.332 289.860,20.498 289.933 C 20.664 290.007,20.800 290.412,20.800 290.833 C 20.800 291.255,20.980 291.600,21.200 291.600 C 21.420 291.600,21.600 291.960,21.600 292.400 C 21.600 292.840,21.780 293.200,22.000 293.200 C 22.220 293.200,22.400 293.560,22.400 294.000 C 22.400 294.440,22.580 294.800,22.800 294.800 C 23.020 294.800,23.200 295.036,23.200 295.325 C 23.200 295.613,23.560 296.236,24.000 296.708 C 24.440 297.180,24.800 297.775,24.800 298.029 C 24.800 298.551,26.786 302.371,27.400 303.029 C 27.620 303.266,28.156 304.121,28.591 304.929 C 29.026 305.738,29.521 306.400,29.691 306.400 C 29.861 306.400,30.000 306.720,30.000 307.112 C 30.000 307.503,30.360 308.083,30.800 308.400 C 31.240 308.717,31.600 309.257,31.600 309.600 C 31.600 309.943,31.960 310.483,32.400 310.800 C 32.840 311.117,33.200 311.657,33.200 312.000 C 33.200 312.343,33.560 312.883,34.000 313.200 C 34.440 313.517,34.800 314.057,34.800 314.400 C 34.800 314.743,35.160 315.283,35.600 315.600 C 36.040 315.917,36.400 316.407,36.400 316.688 C 36.400 316.970,36.580 317.200,36.800 317.200 C 37.020 317.200,37.200 317.430,37.200 317.712 C 37.200 317.993,37.560 318.483,38.000 318.800 C 38.440 319.117,38.800 319.580,38.800 319.829 C 38.800 320.078,39.340 320.846,40.000 321.537 C 40.660 322.228,41.200 322.985,41.200 323.220 C 41.200 323.455,41.380 323.536,41.600 323.400 C 41.820 323.264,42.000 323.433,42.000 323.776 C 42.000 324.119,42.210 324.400,42.467 324.400 C 42.723 324.400,42.824 324.509,42.691 324.642 C 42.558 324.776,42.888 325.324,43.424 325.861 C 43.961 326.397,44.400 327.004,44.400 327.209 C 44.400 327.415,45.390 328.573,46.600 329.783 C 47.810 330.993,48.800 332.167,48.800 332.391 C 48.800 332.616,48.980 332.800,49.200 332.800 C 49.420 332.800,49.600 332.984,49.600 333.209 C 49.600 333.594,53.787 338.000,54.153 338.000 C 54.247 338.000,54.407 333.185,54.510 327.300 C 54.935 302.944,63.585 289.017,83.400 280.785 C 84.390 280.374,88.034 279.200,92.000 278.014 C 93.650 277.521,95.313 276.956,95.695 276.759 C 96.077 276.562,96.664 276.400,97.000 276.400 C 97.336 276.400,97.923 276.235,98.305 276.034 C 98.687 275.833,100.890 275.093,103.200 274.388 C 105.510 273.684,109.290 272.512,111.600 271.783 C 113.910 271.055,117.863 269.810,120.385 269.016 C 122.907 268.223,125.787 267.057,126.785 266.426 C 127.783 265.794,134.810 262.220,142.400 258.483 C 149.990 254.746,158.432 250.585,161.160 249.237 C 163.888 247.890,166.205 246.872,166.310 246.976 C 166.414 247.081,165.680 249.019,164.680 251.283 C 162.112 257.094,161.376 259.855,160.003 268.833 C 159.485 272.219,159.482 285.412,159.998 289.471 C 161.152 298.544,161.906 302.986,163.820 312.000 C 164.822 316.718,165.614 319.762,168.503 330.000 C 168.720 330.770,169.056 331.713,169.249 332.095 C 169.442 332.477,169.600 333.064,169.600 333.400 C 169.600 333.736,169.762 334.323,169.959 334.705 C 170.156 335.087,170.729 336.750,171.231 338.400 C 171.733 340.050,172.292 341.571,172.472 341.780 C 172.652 341.989,172.800 342.486,172.800 342.885 C 172.800 343.284,172.980 343.968,173.200 344.405 C 173.420 344.842,173.780 345.558,174.000 345.995 C 174.220 346.432,174.400 347.064,174.400 347.400 C 174.400 347.736,174.566 348.323,174.768 348.705 C 174.970 349.087,175.528 350.480,176.007 351.800 C 176.824 354.051,177.041 354.618,177.964 356.900 C 178.164 357.395,178.428 358.115,178.551 358.500 C 178.907 359.613,179.494 359.314,179.727 357.900 C 179.846 357.185,180.135 355.835,180.371 354.900 C 180.607 353.965,180.962 352.525,181.160 351.700 C 181.358 350.875,182.908 344.800,184.605 338.200 C 186.301 331.600,187.833 325.570,188.009 324.800 C 188.672 321.894,189.629 318.158,190.000 317.027 C 190.421 315.747,190.119 315.267,184.586 308.400 C 179.379 301.937,179.398 302.513,184.257 298.548 C 186.378 296.816,188.493 295.036,188.957 294.591 C 189.421 294.147,190.430 293.343,191.200 292.807 C 191.970 292.270,193.050 291.372,193.600 290.812 C 194.150 290.251,195.590 288.985,196.800 287.998 C 198.010 287.011,199.241 285.975,199.535 285.695 C 200.030 285.225,197.504 281.839,194.392 278.800 C 194.054 278.470,192.792 277.030,191.589 275.601 C 190.385 274.171,189.128 272.731,188.796 272.401 C 188.463 272.070,186.753 270.180,184.996 268.200 C 183.238 266.220,181.705 264.510,181.590 264.400 C 181.474 264.290,180.394 263.038,179.190 261.618 C 177.985 260.198,176.460 258.470,175.800 257.779 C 173.024 254.871,166.979 247.859,166.728 247.254 C 166.579 246.895,166.444 241.356,166.428 234.946 L 166.400 223.292 162.900 220.674 C 148.882 210.186,140.436 195.608,138.203 178.045 C 137.519 172.665,137.253 172.269,133.882 171.617 C 129.141 170.700,126.076 167.965,125.202 163.870 C 124.699 161.513,124.828 93.856,125.339 91.800 C 127.155 84.503,128.414 81.501,131.918 76.114 C 136.615 68.892,144.926 62.321,152.800 59.603 C 153.570 59.337,154.560 58.971,155.000 58.790 C 155.841 58.444,156.789 58.220,160.400 57.516 C 163.416 56.928,234.378 56.618,234.950 57.190 C 235.175 57.415,235.853 57.600,236.456 57.600 C 237.059 57.600,237.664 57.780,237.800 58.000 C 237.936 58.220,238.319 58.400,238.652 58.400 C 242.668 58.400,249.156 67.201,250.025 73.830 C 250.875 80.314,252.910 82.000,259.883 82.000 C 265.113 82.000,274.447 90.019,274.406 94.476 C 274.403 94.848,274.580 95.264,274.800 95.400 C 275.369 95.752,275.348 163.554,274.778 165.074 C 273.338 168.911,269.172 171.975,265.370 171.994 C 263.440 172.003,262.549 173.313,262.234 176.600 C 260.537 194.310,249.368 213.654,236.300 221.511 C 235.695 221.875,235.200 222.314,235.200 222.486 C 235.200 222.659,234.930 222.800,234.600 222.800 C 234.270 222.800,233.964 222.845,233.920 222.900 C 233.876 222.955,233.741 228.505,233.620 235.234 L 233.400 247.468 231.121 250.234 C 229.868 251.755,228.428 253.456,227.921 254.013 C 227.047 254.974,223.911 258.638,222.112 260.800 C 219.899 263.458,215.390 268.752,214.263 270.014 C 213.568 270.792,212.192 272.412,211.205 273.614 C 210.219 274.816,209.319 275.890,209.205 276.000 C 209.092 276.110,208.013 277.370,206.806 278.800 C 205.599 280.230,204.381 281.641,204.100 281.935 C 203.818 282.229,203.106 283.101,202.517 283.873 L 201.447 285.276 202.663 286.338 C 203.332 286.922,204.840 288.210,206.014 289.200 C 207.188 290.190,208.700 291.544,209.374 292.210 C 210.049 292.875,211.001 293.699,211.491 294.041 C 212.313 294.615,214.662 296.603,218.467 299.947 C 219.310 300.687,220.000 301.437,220.000 301.612 C 220.000 301.923,215.329 308.403,214.819 308.800 C 214.677 308.910,214.129 309.630,213.600 310.400 C 213.071 311.170,212.531 311.890,212.400 312.000 C 212.269 312.110,211.729 312.830,211.200 313.600 C 210.671 314.370,210.069 315.117,209.861 315.260 C 209.653 315.402,209.622 315.852,209.792 316.260 C 209.961 316.667,210.249 317.630,210.432 318.400 C 211.273 321.951,211.616 323.314,212.800 327.800 C 213.497 330.440,214.211 333.230,214.388 334.000 C 214.914 336.289,218.784 351.683,219.215 353.200 C 219.434 353.970,219.846 355.554,220.131 356.719 C 220.925 359.961,221.132 359.692,224.077 351.600 C 224.518 350.390,225.029 349.040,225.213 348.600 C 225.397 348.160,225.776 347.080,226.055 346.200 C 226.335 345.320,226.707 344.429,226.882 344.220 C 227.057 344.011,227.200 343.462,227.200 343.000 C 227.200 342.538,227.348 341.989,227.528 341.780 C 227.708 341.571,228.267 340.050,228.769 338.400 C 229.271 336.750,229.844 335.087,230.041 334.705 C 230.238 334.323,230.400 333.659,230.400 333.229 C 230.400 332.799,230.559 332.349,230.754 332.229 C 230.949 332.108,231.204 331.513,231.321 330.905 C 231.438 330.297,231.729 329.125,231.967 328.300 C 234.433 319.755,234.941 317.798,236.349 311.400 C 237.613 305.660,237.845 304.379,239.253 295.400 C 241.922 278.373,240.058 260.284,234.504 249.315 C 233.110 246.562,233.279 246.508,237.235 248.439 C 239.086 249.343,245.370 252.421,251.200 255.279 C 257.030 258.138,263.870 261.484,266.400 262.714 C 268.930 263.945,271.771 265.470,272.713 266.104 C 273.656 266.738,276.986 268.066,280.113 269.056 C 283.241 270.046,288.590 271.743,292.000 272.828 C 295.410 273.912,300.000 275.361,302.200 276.048 C 304.400 276.734,306.560 277.431,307.000 277.597 C 307.440 277.762,309.600 278.469,311.800 279.167 C 316.188 280.559,316.175 280.554,320.200 282.391 C 329.929 286.833,338.267 295.513,342.110 305.200 C 343.566 308.870,344.017 310.364,345.159 315.306 C 345.420 316.433,345.600 321.459,345.600 327.606 C 345.600 333.323,345.711 338.000,345.846 338.000 C 346.146 338.000,348.727 335.251,350.727 332.800 C 351.535 331.810,352.782 330.397,353.498 329.660 C 354.214 328.923,354.801 328.203,354.802 328.060 C 354.803 327.917,355.613 326.908,356.602 325.817 C 357.591 324.726,358.400 323.714,358.400 323.567 C 358.400 323.420,359.030 322.613,359.800 321.772 C 360.570 320.931,361.200 320.009,361.200 319.722 C 361.200 319.435,361.341 319.200,361.514 319.200 C 361.686 319.200,362.149 318.655,362.543 317.989 C 362.936 317.323,363.695 316.341,364.229 315.807 C 364.763 315.273,365.200 314.558,365.200 314.218 C 365.200 313.878,365.350 313.600,365.532 313.600 C 365.715 313.600,366.119 313.105,366.430 312.500 C 366.740 311.895,367.266 311.130,367.597 310.800 C 367.929 310.470,368.259 309.930,368.330 309.600 C 368.402 309.270,368.627 308.940,368.830 308.867 C 369.034 308.793,369.200 308.478,369.200 308.167 C 369.200 307.855,369.380 307.600,369.600 307.600 C 369.820 307.600,370.000 307.330,370.000 307.000 C 370.000 306.670,370.180 306.400,370.400 306.400 C 370.620 306.400,370.800 306.207,370.800 305.972 C 370.800 305.737,371.340 304.759,372.000 303.800 C 372.660 302.841,373.200 301.863,373.200 301.628 C 373.200 301.393,373.410 301.200,373.667 301.200 C 373.923 301.200,374.022 301.089,373.886 300.952 C 373.750 300.816,373.908 300.434,374.239 300.104 C 374.569 299.774,374.943 298.985,375.070 298.352 C 375.196 297.718,375.457 297.200,375.650 297.200 C 375.843 297.200,376.000 296.840,376.000 296.400 C 376.000 295.960,376.153 295.600,376.340 295.600 C 376.527 295.600,377.289 294.385,378.032 292.900 C 378.776 291.415,379.477 290.110,379.592 290.000 C 380.134 289.479,381.600 286.239,381.600 285.562 C 381.600 285.143,381.780 284.800,382.000 284.800 C 382.220 284.800,382.400 284.440,382.400 284.000 C 382.400 283.560,382.580 283.200,382.800 283.200 C 383.020 283.200,383.200 282.840,383.200 282.400 C 383.200 281.960,383.380 281.600,383.600 281.600 C 383.820 281.600,384.000 281.364,384.000 281.075 C 384.000 280.786,384.360 279.805,384.800 278.894 C 385.240 277.984,385.600 276.960,385.600 276.619 C 385.600 276.279,385.780 276.000,386.000 276.000 C 386.220 276.000,386.400 275.640,386.400 275.200 C 386.400 274.760,386.580 274.400,386.800 274.400 C 387.020 274.400,387.200 273.961,387.200 273.424 C 387.200 272.887,387.380 272.336,387.600 272.200 C 387.820 272.064,388.000 271.513,388.000 270.976 C 388.000 270.439,388.146 270.000,388.324 270.000 C 388.503 270.000,388.890 269.055,389.185 267.900 C 389.481 266.745,389.869 265.530,390.048 265.200 C 390.651 264.092,391.600 260.781,391.600 259.786 C 391.600 259.244,391.780 258.800,392.000 258.800 C 392.220 258.800,392.400 258.170,392.400 257.400 C 392.400 256.630,392.580 256.000,392.800 256.000 C 393.020 256.000,393.200 255.471,393.200 254.824 C 393.200 254.177,393.380 253.536,393.600 253.400 C 393.820 253.264,394.000 252.433,394.000 251.553 C 394.000 250.588,394.159 250.051,394.400 250.200 C 394.642 250.349,394.800 249.804,394.800 248.824 C 394.800 247.931,394.980 247.200,395.200 247.200 C 395.420 247.200,395.600 246.401,395.600 245.424 C 395.600 244.447,395.780 243.536,396.000 243.400 C 396.220 243.264,396.400 242.364,396.400 241.400 C 396.400 240.436,396.580 239.536,396.800 239.400 C 397.020 239.264,397.200 238.479,397.200 237.656 C 397.200 236.833,397.364 235.989,397.565 235.780 C 397.910 235.421,398.140 233.769,398.625 228.200 C 398.739 226.880,399.051 225.368,399.317 224.839 C 400.030 223.422,400.014 175.138,399.300 174.900 C 398.965 174.788,398.800 173.829,398.800 171.990 C 398.800 170.482,398.620 169.136,398.400 169.000 C 398.180 168.864,398.000 167.773,398.000 166.576 C 398.000 165.379,397.820 164.400,397.600 164.400 C 397.380 164.400,397.200 163.511,397.200 162.424 C 397.200 161.337,397.020 160.336,396.800 160.200 C 396.580 160.064,396.400 159.243,396.400 158.376 C 396.400 157.509,396.220 156.800,396.000 156.800 C 395.780 156.800,395.600 156.001,395.600 155.024 C 395.600 154.047,395.420 153.136,395.200 153.000 C 394.980 152.864,394.800 152.144,394.800 151.400 C 394.800 150.656,394.620 149.936,394.400 149.800 C 394.180 149.664,394.000 148.944,394.000 148.200 C 394.000 147.456,393.820 146.736,393.600 146.600 C 393.380 146.464,393.200 145.913,393.200 145.376 C 393.200 144.839,393.020 144.400,392.800 144.400 C 392.580 144.400,392.400 143.781,392.400 143.024 C 392.400 142.267,392.220 141.536,392.000 141.400 C 391.780 141.264,391.600 140.709,391.600 140.166 C 391.600 139.624,391.226 138.150,390.768 136.890 C 390.310 135.631,389.647 133.610,389.294 132.400 C 388.941 131.190,388.551 130.110,388.426 130.000 C 388.144 129.750,386.774 126.113,386.506 124.900 C 386.396 124.405,386.148 124.000,385.953 124.000 C 385.759 124.000,385.600 123.658,385.600 123.241 C 385.600 122.823,385.060 121.455,384.400 120.200 C 383.740 118.945,383.200 117.667,383.200 117.359 C 383.200 117.052,383.020 116.800,382.800 116.800 C 382.580 116.800,382.400 116.350,382.400 115.800 C 382.400 115.250,382.220 114.800,382.000 114.800 C 381.780 114.800,381.600 114.440,381.600 114.000 C 381.600 113.560,381.420 113.200,381.200 113.200 C 380.980 113.200,380.800 112.966,380.800 112.680 C 380.800 111.944,379.859 110.007,379.500 110.003 C 379.335 110.001,379.200 109.640,379.200 109.200 C 379.200 108.760,379.020 108.400,378.800 108.400 C 378.580 108.400,378.400 108.040,378.400 107.600 C 378.400 107.160,378.235 106.800,378.033 106.800 C 377.831 106.800,377.258 105.900,376.761 104.800 C 376.264 103.700,375.709 102.800,375.529 102.800 C 375.348 102.800,375.200 102.529,375.200 102.197 C 375.200 101.509,373.252 97.667,372.500 96.871 C 372.225 96.581,372.000 96.189,372.000 96.000 C 372.000 95.811,371.775 95.419,371.500 95.129 C 371.225 94.838,370.731 94.060,370.403 93.400 C 370.074 92.740,369.489 91.909,369.103 91.553 C 368.716 91.197,368.400 90.652,368.400 90.341 C 368.400 90.031,368.040 89.517,367.600 89.200 C 367.160 88.883,366.800 88.343,366.800 88.000 C 366.800 87.657,366.440 87.117,366.000 86.800 C 365.560 86.483,365.200 85.893,365.200 85.488 C 365.200 85.084,365.020 84.864,364.800 85.000 C 364.580 85.136,364.400 84.967,364.400 84.624 C 364.400 84.281,364.220 84.000,364.000 84.000 C 363.780 84.000,363.600 83.730,363.600 83.400 C 363.600 83.070,363.420 82.800,363.200 82.800 C 362.980 82.800,362.800 82.570,362.800 82.288 C 362.800 82.007,362.440 81.517,362.000 81.200 C 361.560 80.883,361.200 80.375,361.200 80.072 C 361.200 79.769,360.660 79.017,360.000 78.400 C 359.340 77.783,358.800 77.147,358.800 76.986 C 358.800 76.826,358.412 76.358,357.939 75.947 C 357.465 75.536,357.214 75.200,357.381 75.200 C 357.548 75.200,357.132 74.684,356.456 74.053 C 355.781 73.422,355.306 72.827,355.402 72.731 C 355.498 72.636,354.412 71.307,352.990 69.779 C 351.568 68.250,350.404 66.764,350.402 66.476 C 350.401 66.188,350.220 66.064,350.000 66.200 C 349.780 66.336,349.600 66.250,349.600 66.008 C 349.600 65.488,342.531 58.400,342.011 58.400 C 341.815 58.400,341.540 58.040,341.400 57.600 C 341.260 57.160,340.858 56.800,340.506 56.800 C 340.155 56.800,339.969 56.697,340.095 56.571 C 340.339 56.327,333.747 49.600,333.263 49.600 C 333.106 49.600,331.748 48.430,330.246 47.000 C 328.743 45.570,327.362 44.400,327.175 44.400 C 326.989 44.400,326.397 43.961,325.861 43.424 C 325.324 42.888,324.776 42.558,324.642 42.691 C 324.509 42.824,324.400 42.723,324.400 42.467 C 324.400 42.210,324.119 42.000,323.776 42.000 C 323.433 42.000,323.264 41.820,323.400 41.600 C 323.536 41.380,323.367 41.200,323.024 41.200 C 322.681 41.200,322.400 41.020,322.400 40.800 C 322.400 40.580,322.100 40.400,321.733 40.400 C 321.367 40.400,321.178 40.289,321.314 40.152 C 321.647 39.819,320.594 38.800,319.917 38.800 C 319.620 38.800,319.117 38.440,318.800 38.000 C 318.483 37.560,317.993 37.200,317.712 37.200 C 317.430 37.200,317.200 37.020,317.200 36.800 C 317.200 36.580,316.970 36.400,316.688 36.400 C 316.407 36.400,315.924 36.050,315.615 35.621 C 315.307 35.193,314.919 34.927,314.753 35.029 C 314.587 35.131,313.998 34.762,313.444 34.208 C 312.890 33.653,312.158 33.200,311.818 33.200 C 311.478 33.200,311.200 33.050,311.200 32.868 C 311.200 32.685,310.705 32.281,310.100 31.970 C 309.495 31.660,308.709 31.089,308.353 30.703 C 307.997 30.316,307.427 30.000,307.086 30.000 C 306.746 30.000,306.407 29.865,306.333 29.700 C 306.161 29.313,304.139 27.956,302.600 27.195 C 301.940 26.868,301.310 26.497,301.200 26.369 C 300.855 25.969,298.301 24.800,297.772 24.800 C 297.494 24.800,297.207 24.665,297.133 24.500 C 296.966 24.124,294.836 22.825,293.900 22.529 C 293.515 22.407,293.200 22.148,293.200 21.953 C 293.200 21.759,292.840 21.600,292.400 21.600 C 291.960 21.600,291.600 21.420,291.600 21.200 C 291.600 20.980,291.255 20.800,290.833 20.800 C 290.412 20.800,290.007 20.659,289.933 20.488 C 289.752 20.062,284.508 17.600,283.782 17.600 C 283.462 17.600,283.200 17.420,283.200 17.200 C 283.200 16.980,282.840 16.800,282.400 16.800 C 281.960 16.800,281.600 16.620,281.600 16.400 C 281.600 16.180,281.240 16.000,280.800 16.000 C 280.360 16.000,280.000 15.820,280.000 15.600 C 280.000 15.380,279.640 15.200,279.200 15.200 C 278.760 15.200,278.400 15.059,278.400 14.887 C 278.400 14.715,277.905 14.534,277.300 14.484 C 276.695 14.434,276.140 14.215,276.067 13.997 C 275.993 13.778,275.588 13.600,275.167 13.600 C 274.745 13.600,274.400 13.420,274.400 13.200 C 274.400 12.980,273.961 12.800,273.424 12.800 C 272.887 12.800,272.336 12.620,272.200 12.400 C 272.064 12.180,271.601 12.000,271.171 12.000 C 270.741 12.000,270.077 11.841,269.695 11.647 C 269.313 11.452,268.550 11.116,268.000 10.900 C 267.450 10.684,266.550 10.323,266.000 10.097 C 264.122 9.327,260.710 8.400,259.754 8.400 C 259.229 8.400,258.800 8.220,258.800 8.000 C 258.800 7.780,258.181 7.600,257.424 7.600 C 256.667 7.600,255.936 7.420,255.800 7.200 C 255.664 6.980,255.124 6.800,254.600 6.800 C 254.076 6.800,253.536 6.620,253.400 6.400 C 253.264 6.180,252.533 6.000,251.776 6.000 C 251.019 6.000,250.400 5.820,250.400 5.600 C 250.400 5.380,249.691 5.200,248.824 5.200 C 247.957 5.200,247.136 5.020,247.000 4.800 C 246.864 4.580,245.953 4.400,244.976 4.400 C 243.999 4.400,243.200 4.220,243.200 4.000 C 243.200 3.780,242.480 3.600,241.600 3.600 C 240.720 3.600,240.000 3.420,240.000 3.200 C 240.000 2.980,239.111 2.800,238.024 2.800 C 236.937 2.800,235.936 2.620,235.800 2.400 C 235.664 2.180,234.494 2.000,233.200 2.000 C 231.906 2.000,230.736 1.820,230.600 1.600 C 230.464 1.380,229.229 1.200,227.856 1.200 C 226.432 1.200,225.151 0.991,224.874 0.714 C 224.394 0.234,187.712 -0.114,178.500 0.274 " stroke="none" fill="#c9e2fb" fill-rule="evenodd"></path><path id="path2" d="M190.779 293.809 C 185.401 298.297,181.000 302.228,181.000 302.544 C 181.000 303.095,182.831 305.570,188.342 312.468 C 190.486 315.152,190.843 315.818,190.624 316.725 C 190.481 317.316,190.184 318.520,189.964 319.400 C 189.744 320.280,189.407 321.630,189.215 322.400 C 189.023 323.170,188.297 325.960,187.601 328.600 C 186.905 331.240,186.172 334.120,185.973 335.000 C 185.774 335.880,185.445 337.230,185.241 338.000 C 185.038 338.770,183.684 344.055,182.232 349.743 C 180.781 355.432,179.502 360.235,179.390 360.416 C 179.185 360.748,180.845 365.195,182.635 369.112 C 183.166 370.273,183.600 371.303,183.600 371.400 C 183.600 371.497,184.030 372.527,184.555 373.688 C 185.081 374.850,185.910 376.700,186.398 377.800 C 188.014 381.444,190.026 385.719,193.502 392.900 L 196.940 400.000 200.005 400.000 L 203.070 400.000 207.303 391.300 C 209.630 386.515,212.275 380.890,213.181 378.800 C 214.086 376.710,215.161 374.280,215.571 373.400 C 216.687 371.005,217.443 369.241,218.400 366.800 C 218.874 365.590,219.499 364.060,219.788 363.400 C 220.078 362.740,220.405 361.918,220.517 361.573 C 220.628 361.228,220.177 358.888,219.514 356.373 C 218.851 353.858,218.164 351.170,217.988 350.400 C 217.811 349.630,217.097 346.840,216.401 344.200 C 215.705 341.560,214.972 338.680,214.773 337.800 C 214.574 336.920,214.217 335.480,213.979 334.600 C 213.741 333.720,213.371 332.280,213.155 331.400 C 212.282 327.832,212.014 326.770,210.616 321.339 L 209.159 315.678 212.850 310.739 C 214.880 308.023,217.139 305.005,217.871 304.034 C 218.602 303.063,219.200 302.060,219.200 301.806 C 219.200 301.397,202.362 286.658,201.067 285.934 C 200.745 285.753,196.986 288.630,190.779 293.809 " stroke="none" fill="#e17c7e" fill-rule="evenodd"></path><path id="path3" d="M162.600 107.870 C 154.636 108.786,151.177 113.619,150.769 124.400 C 150.260 137.862,147.162 140.788,133.000 141.179 L 125.000 141.400 124.876 151.600 C 124.687 167.193,125.991 170.091,133.882 171.617 C 137.253 172.269,137.519 172.665,138.203 178.045 C 140.436 195.608,148.882 210.186,162.900 220.674 L 166.400 223.292 166.428 234.946 C 166.444 241.356,166.579 246.895,166.728 247.254 C 166.979 247.859,173.024 254.871,175.800 257.779 C 176.460 258.470,177.985 260.198,179.190 261.618 C 180.394 263.038,181.474 264.290,181.590 264.400 C 181.705 264.510,183.238 266.220,184.996 268.200 C 186.753 270.180,188.463 272.070,188.796 272.401 C 189.128 272.731,190.385 274.171,191.589 275.601 C 192.792 277.030,194.054 278.470,194.392 278.800 C 197.504 281.839,200.030 285.225,199.535 285.695 C 199.241 285.975,198.010 287.011,196.800 287.998 C 195.590 288.985,194.150 290.251,193.600 290.812 C 193.050 291.372,191.970 292.270,191.200 292.807 C 190.430 293.343,189.421 294.147,188.957 294.591 C 188.493 295.036,186.378 296.816,184.257 298.548 C 179.398 302.513,179.379 301.937,184.586 308.400 C 190.119 315.267,190.421 315.747,190.000 317.027 C 189.629 318.158,188.672 321.894,188.009 324.800 C 187.833 325.570,186.301 331.600,184.605 338.200 C 182.908 344.800,181.358 350.875,181.160 351.700 C 180.962 352.525,180.628 353.875,180.418 354.700 C 179.875 356.833,179.238 359.735,179.217 360.167 C 179.156 361.464,179.887 358.937,182.223 349.779 C 183.680 344.070,185.038 338.770,185.241 338.000 C 185.445 337.230,185.774 335.880,185.973 335.000 C 186.172 334.120,186.905 331.240,187.601 328.600 C 188.297 325.960,189.032 323.125,189.233 322.300 C 189.435 321.475,189.772 320.125,189.982 319.300 C 190.962 315.453,191.063 315.874,188.342 312.468 C 182.831 305.570,181.000 303.095,181.000 302.544 C 181.000 301.687,200.449 285.588,201.067 285.934 C 202.362 286.658,219.200 301.397,219.200 301.806 C 219.200 302.060,218.602 303.063,217.871 304.034 C 217.139 305.005,214.880 308.023,212.850 310.739 L 209.159 315.678 210.616 321.339 C 211.417 324.453,212.236 327.675,212.436 328.500 C 213.087 331.184,213.539 332.970,213.979 334.600 C 214.217 335.480,214.574 336.920,214.773 337.800 C 214.972 338.680,215.705 341.560,216.401 344.200 C 217.097 346.840,217.809 349.682,217.982 350.516 C 218.310 352.086,218.801 352.959,218.799 351.967 C 218.799 351.655,217.878 347.800,216.754 343.400 C 215.629 339.000,214.564 334.770,214.388 334.000 C 214.211 333.230,213.497 330.440,212.800 327.800 C 211.401 322.498,211.014 320.971,210.468 318.600 C 210.266 317.720,209.961 316.667,209.792 316.260 C 209.622 315.852,209.653 315.402,209.861 315.260 C 210.069 315.117,210.671 314.370,211.200 313.600 C 211.729 312.830,212.269 312.110,212.400 312.000 C 212.531 311.890,213.071 311.170,213.600 310.400 C 214.129 309.630,214.677 308.910,214.819 308.800 C 215.329 308.403,220.000 301.923,220.000 301.612 C 220.000 301.437,219.310 300.687,218.467 299.947 C 214.662 296.603,212.313 294.615,211.491 294.041 C 211.001 293.699,210.049 292.875,209.374 292.210 C 208.700 291.544,207.188 290.190,206.014 289.200 C 204.840 288.210,203.332 286.922,202.663 286.338 L 201.447 285.276 202.517 283.873 C 203.106 283.101,203.818 282.229,204.100 281.935 C 204.381 281.641,205.599 280.230,206.806 278.800 C 208.013 277.370,209.092 276.110,209.205 276.000 C 209.319 275.890,210.219 274.816,211.205 273.614 C 212.192 272.412,213.568 270.792,214.263 270.014 C 215.390 268.752,219.899 263.458,222.112 260.800 C 223.911 258.638,227.047 254.974,227.921 254.013 C 228.428 253.456,229.868 251.755,231.121 250.234 L 233.400 247.468 233.620 235.234 C 233.741 228.505,233.876 222.955,233.920 222.900 C 233.964 222.845,234.270 222.800,234.600 222.800 C 234.930 222.800,235.200 222.659,235.200 222.486 C 235.200 222.314,235.695 221.875,236.300 221.511 C 249.368 213.654,260.537 194.310,262.234 176.600 C 262.549 173.313,263.440 172.003,265.370 171.994 C 269.172 171.975,273.338 168.911,274.778 165.074 C 275.038 164.379,275.200 159.521,275.200 152.374 L 275.200 140.800 267.211 140.800 C 252.931 140.800,249.217 137.276,249.205 123.715 C 249.198 115.690,247.046 111.558,241.427 108.777 C 239.205 107.677,232.072 107.368,231.111 108.329 C 230.852 108.588,230.237 108.800,229.744 108.800 C 229.251 108.800,228.748 108.960,228.627 109.156 C 228.506 109.351,227.821 109.605,227.104 109.719 C 226.387 109.832,225.080 110.134,224.200 110.389 C 210.951 114.230,191.266 114.394,177.100 110.782 C 174.189 110.040,172.189 109.504,171.200 109.200 C 167.407 108.035,164.748 107.624,162.600 107.870 M218.830 353.433 C 218.872 354.468,220.719 360.759,220.759 360.000 C 220.799 359.238,219.322 353.189,219.024 352.890 C 218.901 352.767,218.814 353.012,218.830 353.433 " stroke="none" fill="#fadccf" fill-rule="evenodd"></path><path id="path4" d="M163.950 56.983 C 163.849 57.084,162.514 57.343,160.983 57.559 C 157.616 58.033,156.060 58.353,155.000 58.790 C 154.560 58.971,153.570 59.337,152.800 59.603 C 144.926 62.321,136.615 68.892,131.918 76.114 C 128.416 81.499,127.129 84.568,125.341 91.800 C 125.178 92.460,124.987 103.866,124.916 117.146 L 124.788 141.292 132.894 141.130 C 140.811 140.971,141.051 140.941,143.200 139.855 C 146.493 138.190,150.040 134.301,149.980 132.422 C 149.969 132.080,149.608 132.526,149.177 133.413 C 147.839 136.168,146.103 137.899,143.294 139.282 L 140.617 140.600 132.896 140.743 L 125.176 140.885 125.323 117.143 C 125.415 102.414,125.631 92.717,125.893 91.600 C 130.490 72.018,144.728 59.507,164.569 57.616 C 171.918 56.916,232.632 57.062,235.413 57.787 C 242.494 59.631,247.536 64.782,249.430 72.105 L 249.972 74.200 249.748 72.200 C 249.189 67.206,242.108 58.400,238.652 58.400 C 238.319 58.400,237.936 58.220,237.800 58.000 C 237.664 57.780,237.034 57.600,236.400 57.600 C 235.766 57.600,235.136 57.420,235.000 57.200 C 234.755 56.803,164.345 56.589,163.950 56.983 M250.070 75.926 C 249.979 78.173,251.662 81.226,252.970 81.187 C 253.206 81.180,253.123 80.955,252.785 80.687 C 251.493 79.663,250.447 77.683,250.297 75.976 L 250.140 74.200 250.070 75.926 M254.000 81.577 C 254.539 81.946,257.968 82.210,257.567 81.851 C 257.475 81.769,256.500 81.582,255.400 81.435 C 253.980 81.245,253.574 81.286,254.000 81.577 M260.600 82.400 C 261.796 82.914,262.795 82.914,262.000 82.400 C 261.670 82.187,261.040 82.022,260.600 82.034 L 259.800 82.056 260.600 82.400 M264.788 83.875 C 267.796 85.287,271.681 89.254,273.199 92.462 C 273.859 93.858,274.402 94.730,274.406 94.400 C 274.441 91.237,266.204 82.710,263.224 82.824 C 262.881 82.837,263.585 83.310,264.788 83.875 M274.702 111.938 C 274.758 121.102,274.852 131.390,274.913 134.800 C 274.973 138.210,275.062 130.796,275.111 118.324 C 275.160 105.852,275.065 95.564,274.900 95.462 C 274.735 95.359,274.646 102.774,274.702 111.938 M161.000 107.572 C 156.247 108.722,150.721 114.427,150.827 118.075 C 150.846 118.725,151.004 118.525,151.360 117.400 C 153.487 110.673,159.392 106.939,166.200 108.017 C 168.044 108.309,168.820 108.500,172.800 109.649 C 179.193 111.494,185.442 112.555,193.900 113.231 C 203.122 113.967,216.033 112.757,224.200 110.389 C 225.080 110.134,226.387 109.832,227.104 109.719 C 227.821 109.605,228.511 109.344,228.637 109.140 C 228.870 108.764,227.501 108.968,225.600 109.594 C 223.715 110.215,218.793 111.230,214.000 111.986 C 205.592 113.312,192.362 113.159,183.800 111.636 C 179.139 110.807,177.235 110.399,174.400 109.623 C 166.572 107.479,165.345 107.203,163.827 107.241 C 162.932 107.263,161.660 107.413,161.000 107.572 M232.817 107.554 C 232.276 107.705,233.574 107.822,235.701 107.814 C 237.828 107.806,239.261 107.678,238.884 107.528 C 238.008 107.180,234.098 107.197,232.817 107.554 M229.800 108.400 C 229.029 108.731,229.031 108.745,229.876 108.772 C 230.358 108.787,230.864 108.620,231.000 108.400 C 231.292 107.927,230.901 107.927,229.800 108.400 M240.400 108.192 C 240.400 108.345,242.792 109.600,243.085 109.600 C 243.174 109.600,243.147 109.438,243.024 109.239 C 242.798 108.874,240.400 107.916,240.400 108.192 M243.600 109.743 C 243.600 109.913,244.170 110.531,244.867 111.118 C 245.564 111.704,246.644 112.988,247.267 113.970 C 248.459 115.850,248.797 115.916,247.832 114.080 C 247.231 112.938,243.600 109.216,243.600 109.743 M150.483 123.800 C 150.433 126.440,150.299 129.320,150.185 130.200 C 150.009 131.569,150.040 131.661,150.401 130.836 C 150.650 130.265,150.771 127.652,150.699 124.436 L 150.575 119.000 150.483 123.800 M249.271 124.200 C 249.276 127.060,249.412 129.850,249.574 130.400 C 249.736 130.950,249.794 128.790,249.703 125.600 C 249.492 118.207,249.261 117.456,249.271 124.200 M251.006 134.400 C 252.191 136.679,255.962 140.000,257.366 140.000 C 257.591 140.000,256.746 139.356,255.487 138.569 C 254.229 137.782,253.193 137.017,253.184 136.869 C 253.175 136.721,252.611 135.970,251.931 135.200 C 251.251 134.430,250.835 134.070,251.006 134.400 M258.400 140.382 C 258.730 140.605,259.345 140.791,259.767 140.794 C 260.790 140.802,260.471 140.573,259.000 140.244 C 258.124 140.048,257.962 140.085,258.400 140.382 M165.200 247.222 C 164.870 247.428,156.337 251.663,146.238 256.633 C 136.139 261.604,127.229 266.098,126.438 266.620 C 125.647 267.142,122.930 268.219,120.400 269.014 C 117.870 269.808,113.910 271.055,111.600 271.783 C 109.290 272.512,105.510 273.684,103.200 274.388 C 100.890 275.093,98.687 275.833,98.305 276.034 C 97.923 276.235,97.336 276.400,97.000 276.400 C 96.664 276.400,96.077 276.562,95.695 276.759 C 95.313 276.956,93.650 277.521,92.000 278.014 C 88.034 279.200,84.390 280.374,83.400 280.785 C 68.365 287.031,59.011 298.039,55.347 313.800 C 54.862 315.883,54.650 319.366,54.516 327.400 C 54.315 339.474,54.043 338.152,57.340 341.110 C 58.143 341.830,58.805 342.640,58.812 342.910 C 58.819 343.179,59.012 343.078,59.241 342.684 C 59.588 342.088,59.278 341.607,57.372 339.790 L 55.087 337.612 55.170 328.744 C 55.215 323.867,55.436 318.510,55.659 316.838 C 55.883 315.167,56.160 313.124,56.275 312.297 C 56.390 311.471,56.645 310.695,56.842 310.574 C 57.039 310.452,57.200 309.924,57.200 309.400 C 57.200 308.876,57.380 308.336,57.600 308.200 C 57.820 308.064,58.000 307.682,58.000 307.351 C 58.000 306.309,60.461 301.534,62.818 298.000 C 67.989 290.250,76.490 283.637,84.400 281.213 C 85.390 280.909,86.371 280.512,86.580 280.330 C 86.789 280.149,87.363 280.000,87.856 280.000 C 88.349 280.000,88.864 279.820,89.000 279.600 C 89.136 279.380,89.766 279.200,90.400 279.200 C 91.034 279.200,91.664 279.020,91.800 278.800 C 91.936 278.580,92.476 278.400,93.000 278.400 C 93.524 278.400,94.064 278.220,94.200 278.000 C 94.336 277.780,94.876 277.600,95.400 277.600 C 95.924 277.600,96.464 277.420,96.600 277.200 C 96.736 276.980,97.366 276.800,98.000 276.800 C 98.634 276.800,99.264 276.620,99.400 276.400 C 99.536 276.180,100.087 276.000,100.624 276.000 C 101.161 276.000,101.600 275.820,101.600 275.600 C 101.600 275.380,102.052 275.200,102.605 275.200 C 103.158 275.200,103.923 275.038,104.305 274.841 C 104.687 274.644,106.350 274.085,108.000 273.600 C 109.650 273.115,111.313 272.556,111.695 272.359 C 112.077 272.162,112.664 272.000,113.000 272.000 C 113.336 272.000,113.923 271.840,114.305 271.644 C 114.687 271.448,117.160 270.629,119.800 269.823 C 122.503 268.998,125.474 267.790,126.600 267.058 C 127.700 266.343,129.320 265.423,130.200 265.014 C 131.080 264.605,139.232 260.609,148.315 256.135 C 157.398 251.661,165.003 248.000,165.215 248.000 C 165.734 248.000,165.716 248.092,164.837 249.862 C 163.325 252.906,162.400 255.204,162.407 255.896 C 162.411 256.283,163.011 255.160,163.739 253.400 C 164.467 251.640,165.364 249.624,165.732 248.920 C 166.759 246.952,166.575 246.363,165.200 247.222 M233.601 247.300 C 233.602 247.575,233.928 248.340,234.326 249.000 C 235.423 250.819,237.158 255.377,238.204 259.188 C 238.720 261.065,239.155 262.163,239.171 261.628 C 239.200 260.640,239.082 260.197,237.553 255.600 C 236.856 253.504,235.511 250.302,234.487 248.300 C 234.105 247.554,235.918 248.342,246.310 253.442 C 252.410 256.434,260.550 260.428,264.400 262.317 C 268.250 264.206,272.300 266.328,273.400 267.034 C 275.205 268.191,279.454 269.716,287.400 272.057 C 288.940 272.511,290.513 273.044,290.895 273.241 C 291.277 273.438,291.864 273.600,292.200 273.600 C 292.536 273.600,293.123 273.762,293.505 273.961 C 293.887 274.160,295.010 274.537,296.000 274.800 C 296.990 275.063,298.113 275.440,298.495 275.639 C 298.877 275.838,299.541 276.000,299.971 276.000 C 300.401 276.000,300.864 276.180,301.000 276.400 C 301.136 276.620,301.676 276.800,302.200 276.800 C 302.724 276.800,303.264 276.980,303.400 277.200 C 303.536 277.420,304.166 277.600,304.800 277.600 C 305.434 277.600,306.064 277.780,306.200 278.000 C 306.336 278.220,306.876 278.400,307.400 278.400 C 307.924 278.400,308.464 278.580,308.600 278.800 C 308.736 279.020,309.276 279.200,309.800 279.200 C 310.324 279.200,310.864 279.380,311.000 279.600 C 311.136 279.820,311.676 280.000,312.200 280.000 C 312.724 280.000,313.264 280.180,313.400 280.400 C 313.536 280.620,313.999 280.800,314.429 280.800 C 314.859 280.800,315.523 280.962,315.905 281.160 C 316.287 281.358,318.220 282.274,320.200 283.197 C 322.180 284.119,324.912 285.667,326.272 286.637 C 327.631 287.607,328.886 288.400,329.061 288.400 C 330.431 288.400,337.475 297.348,340.084 302.402 C 343.981 309.950,345.200 316.294,345.200 329.025 L 345.200 337.635 342.966 339.851 C 341.738 341.069,340.827 342.160,340.942 342.276 C 341.057 342.391,341.593 342.061,342.133 341.542 C 342.673 341.024,343.674 340.090,344.357 339.466 L 345.600 338.332 345.600 327.772 C 345.600 321.504,345.421 316.437,345.159 315.306 C 344.146 310.922,343.538 308.813,342.706 306.800 C 342.479 306.250,342.163 305.440,342.003 305.000 C 338.771 296.074,329.804 286.776,320.200 282.391 C 316.175 280.554,316.188 280.559,311.800 279.167 C 309.600 278.469,307.440 277.762,307.000 277.597 C 306.560 277.431,304.400 276.734,302.200 276.048 C 300.000 275.361,295.410 273.912,292.000 272.828 C 288.590 271.743,283.241 270.046,280.113 269.056 C 276.986 268.066,273.656 266.738,272.713 266.104 C 271.771 265.470,268.930 263.945,266.400 262.714 C 263.870 261.484,257.030 258.138,251.200 255.279 C 231.307 245.525,233.599 246.564,233.601 247.300 M161.857 257.243 C 161.033 260.073,160.456 262.862,159.625 268.046 C 159.100 271.317,159.065 286.858,159.575 290.167 C 159.781 291.505,160.149 294.040,160.393 295.800 C 161.080 300.770,162.100 306.245,163.577 312.900 C 163.785 313.835,164.064 315.116,164.197 315.747 C 164.330 316.378,164.526 316.807,164.632 316.701 C 164.739 316.595,164.448 314.818,163.987 312.754 C 160.139 295.544,158.567 278.216,160.003 268.833 C 160.831 263.421,161.294 260.946,161.838 259.032 C 162.146 257.950,162.312 256.979,162.208 256.875 C 162.104 256.771,161.946 256.936,161.857 257.243 M239.326 264.000 C 241.131 274.901,240.712 287.290,238.002 303.150 C 237.762 304.552,237.652 305.786,237.757 305.891 C 237.862 305.996,238.063 305.388,238.203 304.541 C 238.343 303.693,238.615 302.100,238.808 301.000 C 239.001 299.900,239.337 297.740,239.556 296.200 C 239.775 294.660,240.163 291.960,240.419 290.200 C 241.252 284.459,240.475 263.889,239.387 262.874 C 239.226 262.723,239.198 263.230,239.326 264.000 M237.022 308.222 C 236.872 309.025,236.838 309.772,236.948 309.882 C 237.058 309.992,237.272 309.425,237.422 308.622 C 237.573 307.819,237.606 307.073,237.496 306.963 C 237.386 306.853,237.173 307.419,237.022 308.222 M236.222 311.822 C 236.072 312.625,236.038 313.372,236.148 313.482 C 236.258 313.592,236.472 313.025,236.622 312.222 C 236.773 311.419,236.806 310.673,236.696 310.563 C 236.586 310.453,236.373 311.019,236.222 311.822 M235.422 315.422 C 235.272 316.225,235.238 316.972,235.348 317.082 C 235.458 317.192,235.672 316.625,235.822 315.822 C 235.973 315.019,236.006 314.273,235.896 314.163 C 235.786 314.053,235.573 314.619,235.422 315.422 M164.834 318.200 C 164.822 318.640,164.987 319.270,165.200 319.600 C 165.714 320.395,165.714 319.396,165.200 318.200 L 164.856 317.400 164.834 318.200 M234.600 318.800 C 234.448 319.491,234.414 320.147,234.524 320.257 C 234.634 320.367,234.848 319.891,235.000 319.200 C 235.152 318.509,235.186 317.853,235.076 317.743 C 234.966 317.633,234.752 318.109,234.600 318.800 M165.634 321.000 C 165.622 321.440,165.787 322.070,166.000 322.400 C 166.514 323.195,166.514 322.196,166.000 321.000 L 165.656 320.200 165.634 321.000 M233.873 321.353 C 233.723 321.745,233.611 322.366,233.625 322.733 C 233.642 323.175,233.781 323.074,234.037 322.434 C 234.249 321.903,234.361 321.282,234.285 321.054 C 234.209 320.827,234.024 320.961,233.873 321.353 M166.456 323.800 C 166.456 324.240,166.611 324.960,166.800 325.400 L 167.144 326.200 167.144 325.400 C 167.144 324.960,166.989 324.240,166.800 323.800 L 166.456 323.000 166.456 323.800 M232.987 324.653 C 232.848 325.284,232.590 326.250,232.414 326.800 C 231.424 329.883,231.093 331.226,231.278 331.411 C 231.392 331.525,231.976 329.890,232.576 327.776 C 233.176 325.662,233.570 323.837,233.453 323.719 C 233.335 323.602,233.126 324.022,232.987 324.653 M167.234 326.800 C 167.246 327.130,167.411 327.760,167.600 328.200 L 167.944 329.000 167.966 328.200 C 167.978 327.760,167.813 327.130,167.600 326.800 C 167.255 326.267,167.215 326.267,167.234 326.800 M168.012 329.600 C 168.012 329.930,168.187 330.470,168.400 330.800 C 168.745 331.333,168.788 331.333,168.788 330.800 C 168.788 330.470,168.613 329.930,168.400 329.600 C 168.055 329.067,168.012 329.067,168.012 329.600 M168.828 332.276 C 168.918 333.315,169.544 334.196,169.572 333.324 C 169.587 332.842,169.420 332.336,169.200 332.200 C 168.980 332.064,168.813 332.098,168.828 332.276 M230.667 332.267 C 230.520 332.413,230.400 332.866,230.400 333.272 C 230.400 333.678,230.238 334.323,230.041 334.705 C 229.844 335.087,229.271 336.750,228.769 338.400 C 228.267 340.050,227.708 341.571,227.528 341.780 C 227.348 341.989,227.200 342.538,227.200 343.000 C 227.200 343.462,227.057 344.011,226.882 344.220 C 226.707 344.429,226.335 345.320,226.055 346.200 C 225.776 347.080,225.397 348.160,225.213 348.600 C 225.029 349.040,224.500 350.435,224.039 351.700 C 222.131 356.931,221.458 358.620,221.138 358.980 C 220.952 359.189,220.809 359.729,220.819 360.180 C 220.835 360.864,221.664 358.982,223.983 353.000 C 224.153 352.560,224.479 351.750,224.706 351.200 C 224.933 350.650,225.336 349.570,225.600 348.800 C 225.864 348.030,226.231 347.040,226.414 346.600 C 226.597 346.160,227.131 344.630,227.600 343.200 C 228.069 341.770,228.600 340.240,228.781 339.800 C 230.165 336.431,231.387 331.546,230.667 332.267 M169.628 334.676 C 169.718 335.715,170.344 336.596,170.372 335.724 C 170.387 335.242,170.220 334.736,170.000 334.600 C 169.780 334.464,169.613 334.498,169.628 334.676 M170.612 337.700 C 171.610 341.086,172.621 343.634,172.733 343.051 C 172.806 342.672,172.701 342.145,172.499 341.881 C 172.297 341.616,171.815 340.365,171.428 339.100 C 171.042 337.835,170.640 336.800,170.536 336.800 C 170.431 336.800,170.466 337.205,170.612 337.700 M172.800 344.108 C 172.800 344.289,174.706 349.821,175.175 351.000 C 175.350 351.440,175.721 352.340,176.000 353.000 C 176.279 353.660,176.646 354.560,176.817 355.000 C 178.689 359.833,179.164 360.897,179.181 360.295 C 179.191 359.907,179.041 359.277,178.847 358.895 C 178.521 358.254,178.207 357.513,177.239 355.100 C 177.040 354.605,176.486 353.120,176.007 351.800 C 175.528 350.480,174.970 349.087,174.768 348.705 C 174.566 348.323,174.400 347.659,174.400 347.229 C 174.400 346.799,174.220 346.336,174.000 346.200 C 173.780 346.064,173.600 345.614,173.600 345.200 C 173.600 344.786,173.420 344.336,173.200 344.200 C 172.980 344.064,172.800 344.023,172.800 344.108 " stroke="none" fill="#8cacc8" fill-rule="evenodd"></path></g></svg>