<?xml version="1.0" standalone="no"?>
<!DOCTYPE svg PUBLIC "-//W3C//DTD SVG 20010904//EN"
 "http://www.w3.org/TR/2001/REC-SVG-20010904/DTD/svg10.dtd">
<svg version="1.0" xmlns="http://www.w3.org/2000/svg"
 width="50.000000pt" height="48.000000pt" viewBox="0 0 300.000000 296.000000"
 preserveAspectRatio="xMidYMid meet">

<g transform="translate(0.000000,296.000000) scale(0.100000,-0.100000)"
fill="#000000" stroke="none">
<path d="M375 2948 c-2 -7 -22 -101 -45 -208 -22 -107 -42 -205 -45 -217 -5
-20 -1 -23 26 -23 29 0 30 -1 24 -32 -4 -18 -9 -41 -11 -50 -5 -17 39 -18 821
-18 l825 0 13 28 c6 15 12 68 12 118 0 74 -4 101 -24 145 -13 30 -33 76 -45
103 -11 27 -40 68 -62 92 -74 76 -57 74 -816 74 -526 0 -670 -3 -673 -12z
m1423 -82 c29 -20 51 -48 73 -91 27 -54 30 -70 27 -136 l-3 -74 -773 -3 c-734
-2 -773 -1 -768 15 3 10 19 87 37 171 l33 152 666 -2 667 -3 41 -29z"/>
<path d="M205 2148 c-3 -12 -115 -533 -180 -845 -27 -128 -25 -176 9 -242 8
-14 24 -50 37 -80 26 -60 86 -118 156 -152 50 -24 178 -37 202 -20 9 6 45 153
97 398 46 213 84 389 84 391 0 1 393 2 874 2 593 0 884 -3 903 -11 15 -5 43
-24 61 -42 28 -27 32 -37 32 -83 0 -29 -4 -64 -10 -78 l-10 -26 -597 0 -598 0
-104 -489 c-70 -332 -102 -501 -98 -524 3 -19 14 -54 24 -78 11 -24 28 -63 38
-87 40 -93 175 -174 295 -176 38 0 71 2 74 5 4 3 43 182 89 397 l82 392 337 0
c245 0 338 -3 338 -11 0 -12 -47 -229 -56 -261 -4 -14 1 -18 25 -18 34 0 35
-5 22 -62 l-9 -38 229 0 229 0 5 23 c3 12 51 233 107 492 132 611 132 612 11
865 -39 82 -58 107 -137 185 -57 57 -113 103 -152 123 -125 65 -65 62 -1291
62 -882 0 -1114 -3 -1118 -12z m2359 -91 c62 -29 96 -55 161 -120 85 -86 121
-140 151 -229 34 -101 27 -163 -79 -658 -54 -250 -101 -461 -105 -468 -10 -19
-338 -19 -335 0 4 27 74 344 79 361 5 16 -18 17 -427 15 l-432 -3 -33 -155
c-18 -85 -55 -262 -82 -393 -28 -131 -52 -241 -55 -244 -13 -12 -101 10 -159
40 -76 40 -119 90 -125 149 -4 38 51 314 177 895 l12 53 591 2 591 3 20 35
c17 28 21 52 21 125 0 105 -22 163 -87 226 -75 72 -28 69 -1030 69 -494 0
-898 -2 -898 -5 0 -8 -160 -759 -166 -777 -4 -14 -16 -18 -47 -18 -111 2 -223
90 -242 191 -6 32 31 217 177 897 l11 52 1116 -2 1116 -3 79 -38z"/>
</g>
</svg>
