<?xml version="1.0" standalone="no"?>
<!DOCTYPE svg PUBLIC "-//W3C//DTD SVG 20010904//EN"
 "http://www.w3.org/TR/2001/REC-SVG-20010904/DTD/svg10.dtd">
<svg version="1.0" xmlns="http://www.w3.org/2000/svg"
 width="120.000000pt" height="120.000000pt" viewBox="0 0 120.000000 120.000000"
 preserveAspectRatio="xMidYMid meet">

<g transform="translate(0.000000,120.000000) scale(0.100000,-0.100000)"
fill="#000000" stroke="none">
<path d="M487 1060 c-12 -17 -27 -20 -142 -22 -109 -3 -129 -6 -139 -20 -8
-13 -8 -23 0 -35 10 -17 40 -18 394 -18 354 0 384 1 394 18 8 12 8 22 0 35
-10 14 -30 17 -139 20 -115 2 -130 5 -142 22 -12 18 -26 20 -113 20 -87 0
-101 -2 -113 -20z"/>
<path d="M240 545 l0 -336 25 -24 24 -25 311 0 311 0 24 25 25 24 0 336 0 335
-360 0 -360 0 0 -335z"/>
</g>
</svg>
